inDegrees=yes
name=teste_3imus.mot
DataType=double
version=3
OpenSimVersion=4.5
endheader
time	hip_flexion_r	knee_angle_r	hip_flexion_l	knee_angle_l	gearToGround_coord_0
79.34817099571228	119.095875661461	-100.2258068151279	84.21772444782887	-81.46713808514212	-2495.630815218601
79.35327339172363	118.9336896009235	-99.94096717513742	84.32091826834827	-81.75223957602658	-2496.282874797165
79.35627579689026	118.7579618589676	-99.63558166527136	84.43254624371748	-82.05831343460552	-2496.980263738101
79.36027646064758	118.5658186386384	-99.30536080429715	84.53400337206004	-82.38652146896777	-2497.730658947484
79.36426663398743	118.3653100803376	-98.96461769390424	84.68080915578869	-82.7303664681428	-2498.502270158831
79.38129472732544	118.1552473943845	-98.61166398276532	84.80222717196436	-83.08869925187801	-2499.298532582677
79.39126396179199	117.9404432741871	-98.25475163615533	85.00497326090378	-83.46622029615405	-2500.100912400957
79.39624881744385	117.7194736985275	-97.89162205357628	85.08443822403639	-83.83358545004991	-2500.914022053936
79.40120410919189	117.4965621838868	-97.52921049601713	85.29271486307046	-84.18889161877537	-2501.722944689925
79.40620970726013	117.2750912938927	-97.17283157590695	85.4104205377229	-84.534532127585	-2502.51641069974
79.41320371627808	117.050279336097	-96.81466892320582	85.53922317402042	-84.90695797501033	-2503.310597358094
79.42127966880798	116.828428756959	-96.46459910092663	85.70236478871516	-85.24679697417994	-2504.084675594158
79.42625403404236	116.6132415219211	-96.12810483630287	85.84506507399605	-85.58663870738741	-2504.827586322017
79.43124461174011	116.4047873018043	-95.80488613632058	85.98822363292597	-85.91065205259012	-2505.539351662311
79.43522810935974	116.2049238230753	-95.49743177341361	86.11649098570864	-86.2282346178546	-2506.215395961307
79.44226932525635	116.0156464554754	-95.20839763513821	86.24460813139076	-86.52414279026915	-2506.849039471706
79.44725179672241	115.836189449131	-94.93618968208123	86.36869481100892	-86.79572113852883	-2507.445334773494
79.46419024467468	115.6637757436205	-94.6763147347658	86.48715032713208	-87.05824781782857	-2508.013319480944
79.47129011154175	115.4992966800608	-94.42985704623788	86.60195016942983	-87.30198242619664	-2508.551377729137
79.47617816925049	115.3409452506209	-94.19388169834501	86.70972636437978	-87.54693214201012	-2509.064782633323
79.48319864273071	115.1850584872517	-93.96279528281914	86.8197895172614	-87.77097161721157	-2509.569075718724
79.48827028274536	115.0332515995487	-93.73888912663385	86.94905613306842	-87.97704790536194	-2510.056391807142
79.49124550819397	114.8796484836658	-93.51344683362828	87.0382879466792	-88.20948859993733	-2510.546640192436
79.49528050422668	114.7290285252886	-93.29344295038257	87.14811768086751	-88.42436944080683	-2511.024322234816
79.49943971633911	114.5738098857404	-93.06779577347592	87.25356593556013	-88.6545849257394	-2511.514694050898
79.50231218338013	114.4241795441867	-92.85126206133776	87.35963695002165	-88.87029182100306	-2511.984640002158
79.50618481636047	114.2631101050627	-92.61930028579775	87.47358719313397	-89.10117159807332	-2512.488156221749
79.510174036026	114.1040309004159	-92.3912642815534	87.58651570277178	-89.32830020589135	-2512.981194579696
79.51524782180786	113.9470287910642	-92.16723238056339	87.68950288906672	-89.56986315819312	-2513.466130768969
79.51922106742859	113.7891169124145	-91.94290225816081	87.83385271295086	-89.90452189624618	-2513.952107763627
79.52518630027771	113.643958818332	-91.73759363610846	87.94819607449173	-89.97745428488047	-2514.395560278346
79.52829051017761	113.4885782619181	-91.51871125119116	88.06639769415216	-90.19793705143751	-2514.868683740266
79.53125524520874	113.3423204382428	-91.31354429010091	88.14107628907742	-90.39657698839815	-2515.312551358521
79.53520894050598	113.2035019583253	-91.11954940065138	88.31347118997981	-90.62282657523379	-2515.732055936541
79.53825163841248	113.0727944766928	-90.93754130363784	88.32728280712165	-90.77441452724022	-2516.125549354097
79.542240858078	112.9279798414629	-90.736620986546	88.4234918286373	-90.98394608053367	-2516.559560471658
79.54527258872986	112.7947992718786	-90.55250287469102	88.51650297132531	-91.18199096204512	-2516.957718511457
79.55021333694458	112.661672316092	-90.36904647208544	88.62346485635567	-91.33997610253418	-2517.353264462694
79.55427885055542	112.5287761036322	-90.18657566429235	88.75735507060369	-91.5220412610865	-2517.747732442906
79.55725383758545	112.3938652936688	-90.00197544891766	88.86118401275657	-91.70806174526362	-2518.146297773441
79.56027793884277	112.2571391061962	-89.8154908192941	88.92779555124589	-91.88630427629465	-2518.549042367702
79.56426882743835	112.1144408492363	-89.62152710860332	89.03772274140213	-92.07881933276927	-2518.969888301781
79.56730365753174	111.9641048933252	-89.41790560089805	89.14720735644944	-92.28103457555356	-2519.409155914147
79.57022142410278	111.8096331700347	-89.20944448032978	89.26852882809654	-92.48829611018373	-2519.860153603009
79.57617163658142	111.6463457673816	-88.9899159810404	89.37713235572876	-92.70666633028763	-2520.334683581946
